<svg xmlns="http://www.w3.org/2000/svg" xmlns:xlink="http://www.w3.org/1999/xlink" width="543.232" height="73.966" viewBox="0 0 543.232 73.966">
  <defs>
    <clipPath id="clip-path">
      <rect id="Rectangle_1" data-name="Rectangle 1" width="543.232" height="73.966" fill="none"/>
    </clipPath>
  </defs>
  <g id="Group_2" data-name="Group 2" transform="translate(0 0)">
    <g id="Group_1" data-name="Group 1" transform="translate(0 0)" clip-path="url(#clip-path)">
      <path id="Path_1" data-name="Path 1" d="M50.765,41.81a2.764,2.764,0,0,0,.5-1.126l3.972-21.993a1.955,1.955,0,0,0-2-2.388H33.046a1.811,1.811,0,0,0-1.722,1.433l-1.34,7.434a1.174,1.174,0,0,0,1.2,1.435h9.274a.391.391,0,0,1,.4.48L40.1,31.257a.6.6,0,0,1-.572.481H22.277a1.175,1.175,0,0,1-1.2-1.435L24.3,12.452a1.809,1.809,0,0,1,1.714-1.435H54.2a3.018,3.018,0,0,0,2.863-2.388l1.114-6.184a1.952,1.952,0,0,0-2-2.388H24.9A14.211,14.211,0,0,0,11.411,11.316l-3.7,20.45a10.94,10.94,0,0,0-.161,2.555c14.092,5.5,28.6,7.46,43.211,7.489" transform="translate(7.276 0.056)" fill="#ffdb00"/>
      <path id="Path_2" data-name="Path 2" d="M70.954,34.2a1.957,1.957,0,0,0-2-2.39H49.177a1.172,1.172,0,0,1-1.2-1.433L53.023,2.437A1.946,1.946,0,0,0,51.034.049h-8.12a3.016,3.016,0,0,0-2.861,2.388L33.139,40.693a2.168,2.168,0,0,0,.045.992,327.135,327.135,0,0,0,37.142-4.015Z" transform="translate(31.95 0.048)" fill="#ffdb00"/>
      <path id="Path_3" data-name="Path 3" d="M68.362,25.464l2.763,8.914q5-.752,9.934-1.4a98.3,98.3,0,0,1,12.811-.806l4.544-6.792-1.24,6.855a106.941,106.941,0,0,1,12,1.1l5.581-30.887A1.95,1.95,0,0,0,112.756.06h-9.411a3.018,3.018,0,0,0-2.457,1.387L83.009,28.259a.621.621,0,0,1-1.1-.189L74.556,1.447A1.95,1.95,0,0,0,72.6.06H63.192a3.016,3.016,0,0,0-2.863,2.388L54.077,37.041c4.209-.66,8.4-1.332,12.55-1.977Z" transform="translate(52.195 0.059)" fill="#ffdb00"/>
      <path id="Path_4" data-name="Path 4" d="M99.789,27.2a.6.6,0,0,1,.572-.48h20.228a1.811,1.811,0,0,0,1.72-1.435l1.342-7.446a1.174,1.174,0,0,0-1.2-1.433h-20.23a.4.4,0,0,1-.4-.481l.8-4.433a.607.607,0,0,1,.572-.481h25.149a1.807,1.807,0,0,0,1.72-1.433l1.462-8.11a1.165,1.165,0,0,0-1.2-1.415H94.139a3.018,3.018,0,0,0-2.863,2.388l-5.8,32.092A121.529,121.529,0,0,1,97.869,37.82Z" transform="translate(82.501 0.048)" fill="#ffdb00"/>
      <path id="Path_5" data-name="Path 5" d="M95.721,42.2c67.245-12.281,93.033-9.922,120.982.617A128.847,128.847,0,0,0,180.37,24.546l-.519,2.873a3.016,3.016,0,0,1-2.863,2.39h-8.12a1.963,1.963,0,0,1-2-2.39l1.114-6.165q-3.234-.675-6.615-1.181l-1.327,7.346a3.018,3.018,0,0,1-2.863,2.39h-7.33a1.957,1.957,0,0,1-2-2.39l1.527-8.442c-1.095-.037-2.2-.061-3.3-.063l-6.359,9.506a3.026,3.026,0,0,1-2.458,1.389h-9.708a1.954,1.954,0,0,1-1.955-1.389l-2.264-7.3q-2.243.336-4.5.686l-1.014,5.617a3.015,3.015,0,0,1-2.861,2.39h-7.332a1.957,1.957,0,0,1-2-2.39l.658-3.64q-1.993.312-4,.619l-.544,3.021a3.018,3.018,0,0,1-2.863,2.39H67.088a1.948,1.948,0,0,1-1.953-1.4q-3.549.133-7.092.132a3,3,0,0,1-2.366,1.264H54.414l-30.046-.063c-5.418,0-9.27-3.716-9.537-8.69A98.985,98.985,0,0,1,0,13.8S28.47,54.472,95.721,42.2" transform="translate(0 13.32)" fill="#ffdb00"/>
      <path id="Path_6" data-name="Path 6" d="M108.57,31.184c-54.377,8.539-59.958,11.1-87.318,3.072,0,0,19.483,20.2,70.278,10.111S156.3,29.4,178.637,32.679c0,0-15.686-10.034-70.067-1.5" transform="translate(20.512 26.776)" fill="#ffdb00"/>
      <path id="Path_7" data-name="Path 7" d="M127.923,18.642h3.066l7.989,18.394,7.99-18.394h2.91V40.566h-2.044V21.244h-.063l-8.36,19.322h-.9L130.03,21.244h-.063V40.566h-2.044Z" transform="translate(123.471 17.994)" fill="#ffdb00"/>
      <path id="Path_8" data-name="Path 8" d="M165.694,32.174a13.828,13.828,0,0,1-.4,3.376,7.752,7.752,0,0,1-1.346,2.848,6.758,6.758,0,0,1-2.478,1.983,9.9,9.9,0,0,1-7.525,0,6.757,6.757,0,0,1-2.478-1.983,7.753,7.753,0,0,1-1.346-2.848,13.924,13.924,0,0,1-.4-3.376V18.642h2.046V31.648a15.522,15.522,0,0,0,.216,2.508,7.581,7.581,0,0,0,.851,2.478,5.223,5.223,0,0,0,1.8,1.889,6.747,6.747,0,0,0,6.163,0,5.256,5.256,0,0,0,1.8-1.889,7.627,7.627,0,0,0,.851-2.478,15.747,15.747,0,0,0,.216-2.508V18.642h2.044Z" transform="translate(144.505 17.994)" fill="#ffdb00"/>
      <path id="Path_9" data-name="Path 9" d="M168.434,18.642h6.782a14.682,14.682,0,0,1,4.83.7,10.732,10.732,0,0,1,3.3,1.78,8.856,8.856,0,0,1,2.073,2.4,11.673,11.673,0,0,1,1.564,4.707q.094.976.094,1.38t-.094,1.378a11.7,11.7,0,0,1-1.564,4.707,8.856,8.856,0,0,1-2.073,2.4,10.774,10.774,0,0,1-3.3,1.78,14.686,14.686,0,0,1-4.83.7h-6.782Zm2.044,20.067h4.209a14.646,14.646,0,0,0,4.058-.542,9.215,9.215,0,0,0,3.282-1.657,7.809,7.809,0,0,0,2.2-2.832,9.532,9.532,0,0,0,.806-4.072,9.529,9.529,0,0,0-.806-4.074,7.809,7.809,0,0,0-2.2-2.832,9.283,9.283,0,0,0-3.282-1.659,14.721,14.721,0,0,0-4.058-.54h-4.209Z" transform="translate(162.572 17.994)" fill="#ffdb00"/>
      <path id="Path_10" data-name="Path 10" d="M200.106,18.642h13.129V20.5H202.148v7.8h10.313v1.859H202.148v10.4h-2.042Z" transform="translate(193.143 17.994)" fill="#ffdb00"/>
      <path id="Path_11" data-name="Path 11" d="M216.746,18.642h2.042V38.709h10.219v1.857H216.746Z" transform="translate(209.203 17.994)" fill="#ffdb00"/>
      <path id="Path_12" data-name="Path 12" d="M240.621,18.642h2.107l9.227,21.924h-2.291l-2.384-5.821h-11.61l-2.48,5.821h-2.134Zm.961,2.231-5.109,12.015h10.064Z" transform="translate(223.013 17.994)" fill="#ffdb00"/>
      <path id="Path_13" data-name="Path 13" d="M251.175,18.643h6.316a11.742,11.742,0,0,1,2.4.263,6.991,6.991,0,0,1,2.291.912,5.136,5.136,0,0,1,1.7,1.782,5.482,5.482,0,0,1,.666,2.832A5.649,5.649,0,0,1,264.01,27a5.021,5.021,0,0,1-1.456,1.78,6.239,6.239,0,0,1-2.1,1.038,9.012,9.012,0,0,1-2.494.34h-4.738V40.567h-2.042Zm2.042,9.661h4.646a7.263,7.263,0,0,0,1.7-.2,4.478,4.478,0,0,0,1.49-.65,3.386,3.386,0,0,0,1.051-1.193,3.785,3.785,0,0,0,.4-1.828,3.621,3.621,0,0,0-.417-1.794A3.746,3.746,0,0,0,261,21.414a4.406,4.406,0,0,0-1.533-.7,7.09,7.09,0,0,0-1.733-.218h-4.522Z" transform="translate(242.434 17.995)" fill="#ffdb00"/>
      <path id="Path_14" data-name="Path 14" d="M269.356,36.783a5.234,5.234,0,0,0,2.089,2.075,6.161,6.161,0,0,0,2.928.682,5.85,5.85,0,0,0,1.918-.31,4.892,4.892,0,0,0,1.564-.867,4.09,4.09,0,0,0,1.053-1.348,4,4,0,0,0,.387-1.78,3.419,3.419,0,0,0-.481-1.889,3.848,3.848,0,0,0-1.283-1.222,9.545,9.545,0,0,0-1.812-.821c-.67-.226-1.364-.454-2.075-.68s-1.4-.485-2.073-.774a6.9,6.9,0,0,1-1.812-1.132,4.993,4.993,0,0,1-1.285-1.749,6.254,6.254,0,0,1-.48-2.6,5.62,5.62,0,0,1,.572-2.584,5.52,5.52,0,0,1,1.549-1.891,6.882,6.882,0,0,1,2.244-1.144,9.045,9.045,0,0,1,2.663-.387,8.587,8.587,0,0,1,3.329.635A6.305,6.305,0,0,1,281,21.114l-1.765,1.27a5.183,5.183,0,0,0-1.812-1.625,5.243,5.243,0,0,0-2.46-.542,6.709,6.709,0,0,0-1.891.263,4.71,4.71,0,0,0-1.562.774,3.786,3.786,0,0,0-1.069,1.285,3.9,3.9,0,0,0-.4,1.826,3.528,3.528,0,0,0,.835,2.525,5.922,5.922,0,0,0,2.091,1.393,22.465,22.465,0,0,0,2.724.9,13.086,13.086,0,0,1,2.724,1.038,5.867,5.867,0,0,1,2.091,1.812,5.384,5.384,0,0,1,.837,3.2,5.941,5.941,0,0,1-.558,2.631,5.775,5.775,0,0,1-1.5,1.936,6.488,6.488,0,0,1-2.183,1.193,8.244,8.244,0,0,1-2.57.4,10.325,10.325,0,0,1-3.993-.759,7.307,7.307,0,0,1-3.129-2.555Z" transform="translate(258.099 17.721)" fill="#ffdb00"/>
      <path id="Path_15" data-name="Path 15" d="M156.442,1.441,155.783,5.1a1.782,1.782,0,0,1-1.694,1.411H137.43a1.07,1.07,0,0,0-1.014.849L134.51,17.909a.7.7,0,0,0,.709.847h10.2a.355.355,0,0,0,.338-.283l.446-2.466a.23.23,0,0,0-.236-.283h-5.483a.7.7,0,0,1-.709-.849l.794-4.394a1.071,1.071,0,0,1,1.016-.849h11.939a1.156,1.156,0,0,1,1.181,1.413l-2.346,13a1.786,1.786,0,0,1-1.7,1.413h-.747l-17.763-.037a5.431,5.431,0,0,1-5.542-6.648L128.8,6.684A8.4,8.4,0,0,1,136.77.03h18.491a1.153,1.153,0,0,1,1.181,1.411" transform="translate(122.1 0.03)" fill="#ffdb00"/>
      <path id="Path_16" data-name="Path 16" d="M142.838,25.477a1.156,1.156,0,0,1-1.181-1.413l4.09-22.639A1.786,1.786,0,0,1,147.44.012h18.141a5.437,5.437,0,0,1,5.55,6.642l-1.044,5.786a8.332,8.332,0,0,1-4.593,5.815.306.306,0,0,0-.171.4l2.989,5.2a1.028,1.028,0,0,1-.9,1.545c-2.5,0-4.05.079-5.07.065-1.743.028-2.321-.047-2.639-.68l-2.736-5.339a.7.7,0,0,0-.645-.375l-5.807.008a.356.356,0,0,0-.338.283l-.849,4.7a1.782,1.782,0,0,1-1.692,1.411Zm8.6-13.057a.232.232,0,0,0,.236.283h9.388a1.591,1.591,0,0,0,1.507-1.256l.69-3.807a1.033,1.033,0,0,0-1.055-1.26h-9.386a.355.355,0,0,0-.338.283Z" transform="translate(136.704 0.012)" fill="#ffdb00"/>
      <path id="Path_17" data-name="Path 17" d="M156.953,24.074l4.094-22.657A1.793,1.793,0,0,1,162.742,0h21.434a.7.7,0,0,1,.709.849l-.869,4.8A1.073,1.073,0,0,1,183,6.5H168.1a.358.358,0,0,0-.338.285l-.472,2.626a.231.231,0,0,0,.236.283h11.982a.7.7,0,0,1,.709.849l-.8,4.406a1.073,1.073,0,0,1-1.016.849H166.425a.356.356,0,0,0-.338.285l-.444,2.449a.234.234,0,0,0,.238.283h14.9a.694.694,0,0,1,.709.849l-.894,4.98a1.075,1.075,0,0,1-1.016.847H158.142a1.162,1.162,0,0,1-1.189-1.415" transform="translate(151.469 0.001)" fill="#ffdb00"/>
      <path id="Path_18" data-name="Path 18" d="M169.985,23.68,184.717,1.36A3.457,3.457,0,0,1,187.723.049V.073l.018,0V.049c.358-.014.739-.012,1.158,0h.193c.149,0,.277,0,.432,0,.535,0,1.118.012,1.79.012a1.864,1.864,0,0,1,1.737,1.3L200.33,23.68a1.375,1.375,0,0,1-.208,1.183,1.288,1.288,0,0,1-1.018.584h-5.8a.88.88,0,0,1-.855-.649l-.648-2.1H179.515l-.5.764-.955,1.35a1.512,1.512,0,0,1-1.193.643h-6.128a.99.99,0,0,1-.943-.586,1.219,1.219,0,0,1,.187-1.185m13.5-7.049h6.442L187.839,10Z" transform="translate(163.812 0.038)" fill="#ffdb00"/>
      <path id="Path_19" data-name="Path 19" d="M211.329,1.436l-.662,3.655A1.783,1.783,0,0,1,208.975,6.5h-7.02a.356.356,0,0,0-.338.283l-3.123,17.266a1.784,1.784,0,0,1-1.692,1.411H192a1.154,1.154,0,0,1-1.181-1.411l3.121-17.266a.231.231,0,0,0-.238-.283h-7.02A1.156,1.156,0,0,1,185.5,5.091l.658-3.655A1.782,1.782,0,0,1,187.855.025h22.293a1.158,1.158,0,0,1,1.181,1.411" transform="translate(179.026 0.025)" fill="#ffdb00"/>
      <path id="Path_20" data-name="Path 20" d="M211.733.024h4.8a1.15,1.15,0,0,1,1.177,1.411l-2.983,16.516a.7.7,0,0,0,.709.849h11.693a1.156,1.156,0,0,1,1.181,1.413l-.692,3.84a1.784,1.784,0,0,1-1.694,1.411H207.136a1.156,1.156,0,0,1-1.183-1.411l4.088-22.617A1.783,1.783,0,0,1,211.733.024" transform="translate(198.764 0.024)" fill="#ffdb00"/>
      <path id="Path_21" data-name="Path 21" d="M217.414,23.68,232.143,1.36A3.463,3.463,0,0,1,235.152.049V.073l.016,0V.049c.36-.014.741-.012,1.159,0h.193c.147,0,.277,0,.432,0,.533,0,1.118.012,1.79.012a1.864,1.864,0,0,1,1.737,1.3l7.279,22.323a1.382,1.382,0,0,1-.208,1.183,1.288,1.288,0,0,1-1.018.584h-5.8a.878.878,0,0,1-.855-.649l-.649-2.1H226.943l-.5.764-.955,1.35a1.515,1.515,0,0,1-1.193.643h-6.128a.99.99,0,0,1-.943-.586,1.214,1.214,0,0,1,.187-1.185m13.5-7.049h6.442L235.268,10Z" transform="translate(209.589 0.038)" fill="#ffdb00"/>
      <path id="Path_22" data-name="Path 22" d="M237.931,1.452A1.783,1.783,0,0,1,239.623.041h4.8a1.156,1.156,0,0,1,1.183,1.411l-1.578,8.729s-.1.6.4.236l10.28-9.9A1.737,1.737,0,0,1,255.9.01h7.481c.491,0,.652.562.273.933l-12.1,11.663a.289.289,0,0,0-.069.366l7.849,11.606c.246.369-.12.93-.609.93h-7.483a1.2,1.2,0,0,1-1.006-.5l-4.6-6.811-3.437,3.292a1.027,1.027,0,0,0-.3.546l-.369,2.034a1.782,1.782,0,0,1-1.692,1.411h-4.8a1.155,1.155,0,0,1-1.181-1.411Z" transform="translate(225.687 0.01)" fill="#ffdb00"/>
      <path id="Path_23" data-name="Path 23" d="M248.127,24.074l4.1-22.657A1.79,1.79,0,0,1,253.918,0h21.432a.7.7,0,0,1,.709.849l-.869,4.8a1.071,1.071,0,0,1-1.016.851h-14.9a.356.356,0,0,0-.336.285l-.474,2.626a.232.232,0,0,0,.236.283h11.984a.693.693,0,0,1,.707.849l-.8,4.406a1.071,1.071,0,0,1-1.016.849H257.6a.356.356,0,0,0-.338.285l-.442,2.449a.232.232,0,0,0,.238.283h14.9a.7.7,0,0,1,.709.849l-.9,4.98a1.075,1.075,0,0,1-1.016.847H249.316a1.163,1.163,0,0,1-1.189-1.415" transform="translate(239.471 0.001)" fill="#ffdb00"/>
      <path id="Path_24" data-name="Path 24" d="M263.147,25.458a1.156,1.156,0,0,1-1.183-1.411l.694-3.838A1.783,1.783,0,0,1,264.35,18.8h15.965a1.069,1.069,0,0,0,1.016-.847l.216-1.2a.694.694,0,0,0-.709-.847H269.355A5.436,5.436,0,0,1,263.8,9.261l.47-2.594A8.379,8.379,0,0,1,272.225.028H289.2a1.159,1.159,0,0,1,1.183,1.415L289.723,5.1a1.787,1.787,0,0,1-1.694,1.413H272.5a1.069,1.069,0,0,0-1.018.849l-.291,1.6a.7.7,0,0,0,.711.847h11.481a5.44,5.44,0,0,1,5.556,6.638l-.43,2.378a8.379,8.379,0,0,1-7.953,6.638h-.741v0Z" transform="translate(252.826 0.028)" fill="#ffdb00"/>
    </g>
  </g>
</svg>
