<svg xmlns="http://www.w3.org/2000/svg" xmlns:xlink="http://www.w3.org/1999/xlink" width="171.919" height="58.603" viewBox="0 0 171.919 58.603">
  <defs>
    <clipPath id="clip-path">
      <rect id="Rectangle_13" data-name="Rectangle 13" width="171.919" height="58.603" fill="#ffdb00"/>
    </clipPath>
  </defs>
  <g id="Group_12" data-name="Group 12" transform="translate(0 0)">
    <g id="Group_11" data-name="Group 11" transform="translate(0 0)" clip-path="url(#clip-path)">
      <path id="Path_25" data-name="Path 25" d="M41.554,33.132a2.209,2.209,0,0,0,.4-.893L45.1,14.792a1.552,1.552,0,0,0-1.586-1.9H27.5a1.436,1.436,0,0,0-1.364,1.138l-1.063,5.9a.93.93,0,0,0,.952,1.138h7.357a.311.311,0,0,1,.317.382l-.6,3.31a.48.48,0,0,1-.453.38H18.954A.933.933,0,0,1,18,24L20.558,9.84A1.435,1.435,0,0,1,21.917,8.7H44.277a2.392,2.392,0,0,0,2.271-1.894L47.433,1.9A1.549,1.549,0,0,0,45.847.009H21.032a11.275,11.275,0,0,0-10.7,8.93L7.4,25.164a8.6,8.6,0,0,0-.126,2.026c11.18,4.36,22.691,5.918,34.28,5.942" transform="translate(4.491 0.005)" fill="#ffdb00"/>
      <path id="Path_26" data-name="Path 26" d="M61.914,27.09a1.552,1.552,0,0,0-1.586-1.9H44.638a.931.931,0,0,1-.952-1.138l4-22.162A1.545,1.545,0,0,0,46.111,0H39.669A2.394,2.394,0,0,0,37.4,1.9L31.913,32.244a1.726,1.726,0,0,0,.037.788,259.728,259.728,0,0,0,29.466-3.185Z" transform="translate(19.723 0)" fill="#ffdb00"/>
      <path id="Path_27" data-name="Path 27" d="M63.421,20.166l2.192,7.072c2.645-.4,5.273-.772,7.881-1.109a78.353,78.353,0,0,1,10.163-.639l3.6-5.387-.981,5.437a84.776,84.776,0,0,1,9.514.871l4.428-24.5A1.546,1.546,0,0,0,98.64.011H91.173a2.386,2.386,0,0,0-1.947,1.1L75.041,22.383a.493.493,0,0,1-.876-.151L68.333,1.113a1.546,1.546,0,0,0-1.549-1.1H59.319a2.394,2.394,0,0,0-2.273,1.9L52.089,29.35c3.338-.523,6.657-1.055,9.956-1.567Z" transform="translate(32.222 0.006)" fill="#ffdb00"/>
      <path id="Path_28" data-name="Path 28" d="M93.687,21.537a.478.478,0,0,1,.453-.38h16.048a1.436,1.436,0,0,0,1.364-1.138l1.065-5.908a.932.932,0,0,0-.952-1.136H95.618a.314.314,0,0,1-.317-.382l.634-3.517a.481.481,0,0,1,.453-.382H116.34A1.433,1.433,0,0,0,117.7,7.556l1.161-6.432A.924.924,0,0,0,117.913,0H89.2a2.394,2.394,0,0,0-2.271,1.9l-4.6,25.457a97.11,97.11,0,0,1,9.831,2.612Z" transform="translate(50.931 0)" fill="#ffdb00"/>
      <path id="Path_29" data-name="Path 29" d="M75.94,35.779c53.347-9.742,73.806-7.873,95.979.489a102.21,102.21,0,0,0-28.824-14.5l-.413,2.279a2.391,2.391,0,0,1-2.271,1.9h-6.44a1.558,1.558,0,0,1-1.593-1.9l.885-4.891q-2.569-.537-5.249-.936l-1.054,5.827a2.39,2.39,0,0,1-2.271,1.9h-5.816a1.551,1.551,0,0,1-1.585-1.9l1.211-6.7q-1.3-.046-2.622-.05l-5.045,7.541a2.4,2.4,0,0,1-1.949,1.1h-7.7a1.55,1.55,0,0,1-1.552-1.1l-1.8-5.793q-1.777.265-3.567.544l-.806,4.456a2.391,2.391,0,0,1-2.269,1.9H85.373a1.552,1.552,0,0,1-1.586-1.9l.524-2.889q-1.583.25-3.171.492l-.432,2.4a2.394,2.394,0,0,1-2.273,1.9H53.223a1.549,1.549,0,0,1-1.551-1.107c-1.874.071-3.754.108-5.626.105a2.374,2.374,0,0,1-1.878,1h-1L19.332,25.9A7.22,7.22,0,0,1,11.767,19,78.519,78.519,0,0,1,0,13.245S22.586,45.512,75.94,35.779" transform="translate(0 8.193)" fill="#ffdb00"/>
      <path id="Path_30" data-name="Path 30" d="M89.743,29.4C46.6,36.179,42.176,38.212,20.472,31.841c0,0,15.454,16.027,55.752,8.023s51.389-11.871,69.1-9.273c0,0-12.444-7.96-55.586-1.186" transform="translate(12.664 16.5)" fill="#ffdb00"/>
    </g>
  </g>
</svg>
